#N canvas 0 28 1600 900 12;
#X obj 114 445 s~ filt_out;
#X obj 130 117 keyboard 40 200 2 2 0 0 empty empty;
#X obj 317 63 notein;
#X msg 29 32 height 200;
#X msg 149 36 norm 127;
#X floatatom 145 629 4 0 127 0 - - - 0;
#X obj 145 541 vradio 15 1 0 5 empty empty empty 0 -8 0 10 #dfdfdf #000000 #000000 0;
#X text 127 520 program;
#X obj 93 655 else/pack2 pgm f 1;
#X obj 3 338 else/display;
#X obj 289 431 route preset;
#X obj 289 472 else/display;
#X obj 16 263 bng 25 250 50 0 empty empty empty 17 7 0 10 #191919 #e1e1e1 #e1e1e1;
#X obj 120 361 else/sfont~ harmoniums.sf2;
#N canvas 0 28 1600 900 bellows 0;
#X obj 549 111 inlet;
#X obj 813 906 outlet~;
#X obj 685 379 bng 25 250 50 0 empty empty empty 17 7 0 10 #191919 #e1e1e1 #e1e1e1;
#X obj 757 466 delay 1000;
#X obj 656 545 line;
#X obj 665 621 s bellow;
#X obj 811 655 - 1;
#X obj 830 706 * -1;
#X obj 838 758 line~;
#X obj 838 813 *~;
#X obj 665 698 r~ filt_out;
#X obj 730 272 sel 32;
#X obj 775 122 key;
#X obj 591 184 ctlin;
#X obj 1064 551 hsl 200 50 1 0 0 0 empty empty empty -2 -8 0 10 #191919 #e1e1e1 #e1e1e1 0 1;
#X obj 1196 567 nbx 4 18 -1e+37 1e+37 0 0 empty empty empty 0 -8 0 10 #191919 #e1e1e1 #e1e1e1 0 256;
#X obj 1027 717 ctlout 1;
#X obj 542 589 tgl 25 0 empty empty empty 17 7 0 10 #191919 #e1e1e1 #e1e1e1 0 1;
#X text 1108 565 belowspeed;
#X msg 840 504 1 4000;
#X obj 519 334 / 127;
#X obj 584 392 nbx 4 18 -1e+37 1e+37 0 0 empty empty empty 0 -8 0 10 #191919 #e1e1e1 #e1e1e1 0 256;
#X msg 666 453 \$1 1000;
#X connect 2 0 3 0;
#X connect 3 0 19 0;
#X connect 4 0 17 0;
#X connect 6 0 7 0;
#X connect 7 0 8 0;
#X connect 8 0 9 1;
#X connect 9 0 1 0;
#X connect 10 0 9 0;
#X connect 12 0 11 0;
#X connect 13 0 2 0;
#X connect 13 0 20 0;
#X connect 14 0 5 0;
#X connect 14 0 6 0;
#X connect 14 0 15 0;
#X connect 15 0 16 0;
#X connect 17 0 14 0;
#X connect 19 0 4 0;
#X connect 20 0 21 0;
#X connect 21 0 22 0;
#X connect 22 0 4 0;
#X restore 824 318 pd bellows;
#X obj 706 654 dac~;
#X connect 1 0 13 0;
#X connect 2 0 1 0;
#X connect 2 1 1 1;
#X connect 3 0 1 0;
#X connect 4 0 1 0;
#X connect 5 0 8 1;
#X connect 6 0 5 0;
#X connect 8 0 9 0;
#X connect 9 0 13 0;
#X connect 10 0 11 0;
#X connect 12 0 13 0;
#X connect 13 0 0 0;
#X connect 13 2 10 0;
#X connect 14 0 15 0;
#X connect 14 0 15 1;
