#N canvas 0 28 539 417 12;
#X obj 73 -244 s~ filt_out;
#X obj 123 -571 keyboard 40 200 2 2 0 0 empty empty;
#X obj 310 -625 notein;
#X msg 22 -656 height 200;
#X msg 142 -652 norm 127;
#X floatatom 138 -59 4 0 127 0 - - - 0;
#X obj 191 -193 vradio 15 1 0 5 empty empty empty 0 -8 0 10 #dfdfdf #000000 #000000 0;
#X text 120 -169 program;
#X obj 86 -33 else/pack2 pgm f 1;
#X obj -4 -350 else/display;
#X obj 282 -257 route preset;
#X obj 282 -216 else/display;
#X obj 9 -425 bng 25 250 50 0 empty empty empty 17 7 0 10 #191919 #e1e1e1 #e1e1e1;
#N canvas 0 22 450 300 bellows 0;
#X obj 1215 802 bng 25 250 50 0 empty empty empty 17 7 0 10 #191919 #e1e1e1 #e1e1e1;
#X obj 1287 889 delay 1000;
#X obj 1281 1013 line;
#X obj 1446 592 s bellow;
#X obj 1560 712 - 1;
#X obj 1579 763 * -1;
#X obj 1587 815 line~;
#X obj 1479 882 *~;
#X obj 1405 835 r~ filt_out;
#X obj 1343 346 tgl 25 0 empty empty empty 17 7 0 10 #191919 #e1e1e1 #e1e1e1 0 1;
#X msg 1370 927 1 4000;
#X obj 1099 666 / 127;
#X msg 1196 876 \$1 1000;
#X obj 1721 942 *~;
#X obj 1629 890 r~ filt_outR;
#X obj 1476 986 clip~ -0.5 0.5;
#X obj 1742 1022 clip~ -0.5 0.5;
#X obj 1514 227 vsl 74 179 0 1 0 0 empty empty empty 0 -9 0 10 #191919 #e1e1e1 #e1e1e1 0 1;
#X obj 824 545 int;
#X obj 1527 359 nbx 4 27 0 127 0 0 empty empty empty 0 -8 0 10 #191919 #e1e1e1 #e1e1e1 0 256;
#X obj 868 507 * 127;
#X obj 1209 221 ctlin 1 1;
#X obj 761 968 ctlout 1 6;
#X obj 762 779 clip 0 127;
#X obj 687 644 - 127;
#X obj 691 697 * -1;
#X obj 1011 226 inlet;
#X obj 1539 1088 outlet~;
#X obj 1628 1070 outlet~;
#X connect 0 0 1 0 32.................U....fD...PE....HA...3C....;
#X connect 1 0 10 0 32.................J....LE...fB....SA...LA....;
#X connect 2 0 9 0 48......................jA.........Y....Pk+++uR....T4+++qD....U9+++;
#X connect 4 0 5 0 32.................P....LA....D....S.....B....;
#X connect 5 0 6 0 32.................Q....f....PD....H....DB....;
#X connect 6 0 7 1 32.................X.....5+++OF....f9+++CC....;
#X connect 6 0 13 1 32.................o....DI...PJ....QB...vF....;
#X connect 7 0 15 0;
#X connect 8 0 7 0 32.................N....nD...fC....JA...vA....;
#X connect 9 0 17 0;
#X connect 9 0 20 0 48......................j0+++O.....Y8+++W6+++ed9+++09+++mm+++es++++;
#X connect 10 0 2 0 32.................K....jz++++B....I8+++aA....;
#X connect 11 0 12 0 32.................iA...LD...vX....CA...TL....;
#X connect 12 0 2 0 32.................k....b++++eI....2++++mD....;
#X connect 13 0 16 0 32.................e....TA...vG....U....zC....;
#X connect 14 0 13 0 32.................M....HI...PC....RB...jA....;
#X connect 15 0 27 0;
#X connect 16 0 28 0;
#X connect 17 0 4 0 32.................YB...3B...Pl....t....DS....;
#X connect 17 0 3 0 32.................lA....z+++uY.....8+++2N....;
#X connect 18 0 24 0 32.................a....f2++++F....38+++CE....;
#X connect 20 0 18 0 32.................J....T8+++uB....U++++OA....;
#X connect 21 0 0 0 32.................KA...XR...vR....lD...bL....;
#X connect 21 0 11 0 32.................BA....H...fP.....B...nI....;
#X connect 23 0 19 0 64......................vQ.........bD...Ts++++dA...U6+++uW...Pb9+++1K...Dm+++u8B...w4+++C;
#X connect 23 0 22 0 32.................3....vC....N....7.....G....;
#X connect 24 0 25 0 32.................Q....P....PD....D....HB....;
#X connect 25 0 23 0 32.................H....3D....B....NA...fA....;
#X restore 604 -255 pd bellows;
#X obj 529 -176 dac~ 1 2;
#X obj 162 -238 s~ filt_outR;
#X obj 113 -327 else/sfont~ harmonium.sf2;
#X connect 1 0 16 0;
#X connect 2 0 1 0;
#X connect 2 1 1 1;
#X connect 3 0 1 0;
#X connect 4 0 1 0;
#X connect 5 0 8 1;
#X connect 6 0 5 0;
#X connect 8 0 9 0;
#X connect 9 0 16 0;
#X connect 10 0 11 0;
#X connect 12 0 16 0;
#X connect 13 0 14 0;
#X connect 13 1 14 1;
#X connect 16 0 0 0;
#X connect 16 0 15 0;
#X connect 16 2 10 0;
